<svg width="30" height="28" viewBox="0 0 30 28" fill="none" xmlns="http://www.w3.org/2000/svg">
<path d="M22.1045 10.3248L16.1318 0.882321C15.8727 0.479288 15.4364 0.277771 15 0.277771C14.5636 0.277771 14.1273 0.479288 13.8682 0.896715L7.89545 10.3248H1.36364C0.613636 10.3248 0 10.9725 0 11.7642C0 11.8938 0.0136363 12.0233 0.0545454 12.1529L3.51818 25.4961C3.83182 26.7052 4.88182 27.5977 6.13636 27.5977H23.8636C25.1182 27.5977 26.1682 26.7052 26.4955 25.4961L29.9591 12.1529L30 11.7642C30 10.9725 29.3864 10.3248 28.6364 10.3248H22.1045ZM10.9091 10.3248L15 3.99143L19.0909 10.3248H10.9091ZM15 21.84C13.5 21.84 12.2727 20.5446 12.2727 18.9612C12.2727 17.3779 13.5 16.0824 15 16.0824C16.5 16.0824 17.7273 17.3779 17.7273 18.9612C17.7273 20.5446 16.5 21.84 15 21.84Z" fill="black"/>
</svg>
