<svg width="20" height="34" viewBox="0 0 20 34" fill="none" xmlns="http://www.w3.org/2000/svg">
<path d="M2.22222 33.1852C1.61111 33.1852 1.08796 32.8613 0.652778 32.2136C0.217593 31.5659 0 30.7873 0 29.8777V6.72592C0 5.81639 0.217593 5.03777 0.652778 4.39007C1.08796 3.74237 1.61111 3.41852 2.22222 3.41852H6.86111C7.06481 2.45386 7.46296 1.66146 8.05556 1.04132C8.64815 0.421184 9.2963 0.111115 10 0.111115C10.7407 0.111115 11.4028 0.421184 11.9861 1.04132C12.5694 1.66146 12.963 2.45386 13.1667 3.41852H17.7778C18.3889 3.41852 18.912 3.74237 19.3472 4.39007C19.7824 5.03777 20 5.81639 20 6.72592V29.8777C20 30.7873 19.7824 31.5659 19.3472 32.2136C18.912 32.8613 18.3889 33.1852 17.7778 33.1852H2.22222ZM2.22222 29.8777H17.7778V6.72592H15.5556V11.687H4.44444V6.72592H2.22222V29.8777ZM10 6.72592C10.3148 6.72592 10.5787 6.56744 10.7917 6.25048C11.0046 5.93352 11.1111 5.54077 11.1111 5.07222C11.1111 4.60367 11.0046 4.21092 10.7917 3.89396C10.5787 3.577 10.3148 3.41852 10 3.41852C9.68519 3.41852 9.4213 3.577 9.20833 3.89396C8.99537 4.21092 8.88889 4.60367 8.88889 5.07222C8.88889 5.54077 8.99537 5.93352 9.20833 6.25048C9.4213 6.56744 9.68519 6.72592 10 6.72592Z" fill="black"/>
<path d="M5.69967 25.4972L3.33301 22.9991L4.26634 22.0139L5.68301 23.5092L8.51634 20.5185L9.44967 21.5213L5.69967 25.4972ZM5.69967 19.8676L3.33301 17.3694L4.26634 16.3843L5.68301 17.8796L8.51634 14.8889L9.44967 15.8917L5.69967 19.8676ZM10.6663 24.0898V22.6824H16.6663V24.0898H10.6663ZM10.6663 18.4602V17.0528H16.6663V18.4602H10.6663Z" fill="black"/>
</svg>
