<svg width="27" height="28" viewBox="0 0 27 28" fill="none" xmlns="http://www.w3.org/2000/svg">
<path d="M16.9425 20.3547L12.15 15.4833V8.62222H14.85V14.3512L18.8325 18.3993L16.9425 20.3547ZM12.15 5.87777V3.13333H14.85V5.87777H12.15ZM21.6 15.4833V12.7389H24.3V15.4833H21.6ZM12.15 25.0889V22.3444H14.85V25.0889H12.15ZM2.7 15.4833V12.7389H5.4V15.4833H2.7ZM13.5 27.8333C11.6325 27.8333 9.8775 27.4731 8.235 26.7527C6.5925 26.0323 5.16375 25.0546 3.94875 23.8196C2.73375 22.5846 1.77187 21.1323 1.06312 19.4628C0.354375 17.7932 0 16.0093 0 14.1111C0 12.2129 0.354375 10.429 1.06312 8.75944C1.77187 7.0899 2.73375 5.63763 3.94875 4.40263C5.16375 3.16763 6.5925 2.18993 8.235 1.46951C9.8775 0.749094 11.6325 0.388885 13.5 0.388885C15.3675 0.388885 17.1225 0.749094 18.765 1.46951C20.4075 2.18993 21.8362 3.16763 23.0512 4.40263C24.2662 5.63763 25.2281 7.0899 25.9369 8.75944C26.6456 10.429 27 12.2129 27 14.1111C27 16.0093 26.6456 17.7932 25.9369 19.4628C25.2281 21.1323 24.2662 22.5846 23.0512 23.8196C21.8362 25.0546 20.4075 26.0323 18.765 26.7527C17.1225 27.4731 15.3675 27.8333 13.5 27.8333ZM13.5 25.0889C16.515 25.0889 19.0687 24.0254 21.1612 21.8985C23.2537 19.7715 24.3 17.1757 24.3 14.1111C24.3 11.0465 23.2537 8.45069 21.1612 6.32374C19.0687 4.1968 16.515 3.13333 13.5 3.13333C10.485 3.13333 7.93125 4.1968 5.83875 6.32374C3.74625 8.45069 2.7 11.0465 2.7 14.1111C2.7 17.1757 3.74625 19.7715 5.83875 21.8985C7.93125 24.0254 10.485 25.0889 13.5 25.0889Z" fill="black"/>
</svg>
